<svg width="128" height="128" viewBox="0 0 128 128" xmlns="http://www.w3.org/2000/svg">
  <rect width="128" height="128" rx="24" fill="#1e1e1e"></rect>

  <path d="M63 18c-13 0-24 2-24 10v12h27v4H29c-8 0-15 7-15 20s7 20 15 20h9V72c0-9 7-16 16-16h28c7 0 12-5 12-12V28c0-8-11-10-31-10z" fill="#3776AB" opacity="0.9"></path>
  <path d="M65 110c13 0 24-2 24-10V88H62v-4h37c8 0 15-7 15-20s-7-20-15-20h-9v12c0 9-7 16-16 16H46c-7 0-12 5-12 12v16c0 8 11 10 31 10z" fill="#FFD43B" opacity="0.9"></path>

  <circle cx="51" cy="31" r="4" fill="#ffffff"></circle>
  <circle cx="77" cy="97" r="4" fill="#1e1e1e"></circle>

  <circle cx="64" cy="64" r="34" fill="none" stroke="#E53935" stroke-width="8"></circle>
  <circle cx="64" cy="64" r="8" fill="#E53935"></circle>

  <line x1="64" y1="18" x2="64" y2="44" stroke="#E53935" stroke-width="8" stroke-linecap="round"></line>
  <line x1="64" y1="84" x2="64" y2="110" stroke="#E53935" stroke-width="8" stroke-linecap="round"></line>
  <line x1="18" y1="64" x2="44" y2="64" stroke="#E53935" stroke-width="8" stroke-linecap="round"></line>
  <line x1="84" y1="64" x2="110" y2="64" stroke="#E53935" stroke-width="8" stroke-linecap="round"></line>
</svg>