<?xml version="1.0" encoding="UTF-8" standalone="no"?>
<svg
   version="1.1"
   x="0px"
   y="0px"
   width="160"
   height="160"
   viewBox="0.21 -0.077 160 160"
   enable-background="new 0.21 -0.077 110 110"
   xml:space="preserve"
   id="svg4"
   sodipodi:docname="sidebar3.svg"
   inkscape:version="1.4.2 (ebf0e940d0, 2025-05-08)"
   xmlns:inkscape="http://www.inkscape.org/namespaces/inkscape"
   xmlns:sodipodi="http://sodipodi.sourceforge.net/DTD/sodipodi-0.dtd"
   xmlns="http://www.w3.org/2000/svg"
   xmlns:svg="http://www.w3.org/2000/svg"><defs
     id="defs4" /><sodipodi:namedview
     id="namedview4"
     pagecolor="#ffffff"
     bordercolor="#666666"
     borderopacity="1.0"
     inkscape:showpageshadow="2"
     inkscape:pageopacity="0.0"
     inkscape:pagecheckerboard="0"
     inkscape:deskcolor="#d1d1d1"
     inkscape:zoom="4.85625"
     inkscape:cx="79.89704"
     inkscape:cy="80"
     inkscape:window-width="1920"
     inkscape:window-height="979"
     inkscape:window-x="0"
     inkscape:window-y="29"
     inkscape:window-maximized="1"
     inkscape:current-layer="g1" /><linearGradient
     id="SVGID_1_"
     gradientUnits="userSpaceOnUse"
     x1="63.815899"
     y1="56.682899"
     x2="118.4934"
     y2="1.8225"
     gradientTransform="matrix(1,0,0,-1,-53.2974,66.4321)"> <stop
   offset="0"
   style="stop-color:#b83838;stop-opacity:1;"
   id="stop1" /> <stop
   offset="1"
   style="stop-color:#366994"
   id="stop2" /></linearGradient><path
     fill="url(#SVGID_1_)"
     d="m 80.023004,24.923005 c -25.971,0 -26.25,10.080999 -26.25,12.155999 0,3.148 0,12.594 0,12.594 h 26.75 v 3.781 c 0,0 -27.852,0 -37.375,0 -7.949,0 -17.938,4.833 -17.938,26.25 0,19.673 7.792,27.280996 15.656,27.280996 2.335,0 9.344,0 9.344,0 0,0 0,-9.764996 0,-13.124996 0,-5.491 2.721,-15.656 15.406,-15.656 15.91,0 19.971,0 26.531,0 3.902,0 14.905996,-1.696 14.905996,-14.406 0,-13.452 0,-17.89 0,-24.219 0.001,-3.153 -0.538,-14.655999 -27.029996,-14.655999 z m -14.75,8.468999 c 2.662,0 4.813,2.15 4.813,4.813 0,2.661 -2.151,4.813 -4.813,4.813 -2.662,0 -4.813,-2.151 -4.813,-4.813 0,-2.663 2.151,-4.813 4.813,-4.813 z"
     id="path2"
     style="fill:none;fill-opacity:1;stroke:#000000;stroke-width:4;stroke-dasharray:none;stroke-opacity:1" /><path
     fill="url(#SVGID_2_)"
     d="m 80.397004,134.923 c 25.958996,0 26.281996,-10.271 26.281996,-12.156 0,-3.148 0,-12.594 0,-12.594 H 79.897004 v -3.781 c 0,0 28.031996,0 37.374996,0 8.009,0 17.938,-4.954 17.938,-26.249996 0,-23.322 -10.538,-27.281 -15.656,-27.281 -2.336,0 -9.344,0 -9.344,0 0,0 0,10.216 0,13.125 0,5.491 -2.631,15.656 -15.405996,15.656 -15.91,0 -19.476,0 -26.532,0 -3.892,0 -14.906,1.896 -14.906,14.406 0,14.474996 0,18.264996 0,24.218996 0,5.23 3.196,14.656 27.031,14.656 z m 14.751,-8.469 c -2.662,0 -4.813,-2.151 -4.813,-4.813 0,-2.662 2.15,-4.813 4.813,-4.813 2.661,0 4.813,2.151 4.813,4.813 0,2.662 -2.152,4.813 -4.813,4.813 z"
     id="path4"
     style="fill:none;fill-opacity:1;stroke:#000000;stroke-width:4;stroke-dasharray:none;stroke-opacity:1" /><linearGradient
     id="SVGID_2_"
     gradientUnits="userSpaceOnUse"
     x1="97.044403"
     y1="21.632099"
     x2="155.6665"
     y2="-34.5308"
     gradientTransform="matrix(1,0,0,-1,-53.2974,66.4321)"> <stop
   offset="0"
   style="stop-color:#FFE052"
   id="stop3" /> <stop
   offset="1"
   style="stop-color:#FFC331"
   id="stop4" /></linearGradient><g
     id="g1"
     transform="matrix(-1.9318224,1.9318224,-1.9318224,-1.9318224,288.84682,79.923003)"
     style="fill:none;fill-opacity:1;stroke:#000000;stroke-width:4.19128;stroke-dasharray:none;stroke-opacity:1"><g
       id="g4"
       style="stroke-width:3.66030946;stroke-dasharray:none"><circle
         cx="54"
         cy="54"
         r="27.200001"
         fill="none"
         stroke="#E53935"
         stroke-width="6.4"
         id="circle4"
         style="fill:none;fill-opacity:1;stroke:#000000;stroke-width:3.66030946;stroke-dasharray:none;stroke-opacity:1" /><line
         x1="15.675836"
         y1="54"
         x2="92.324165"
         y2="54"
         stroke="#E53935"
         stroke-width="6.4"
         stroke-linecap="round"
         id="line8"
         style="fill:none;fill-opacity:1;stroke:#000000;stroke-width:3.66030946;stroke-dasharray:none;stroke-opacity:1" /><line
         x1="54"
         y1="15.675839"
         x2="54"
         y2="92.324165"
         stroke="#E53935"
         stroke-width="6.4"
         stroke-linecap="round"
         id="line8-6"
         style="fill:none;fill-opacity:1;stroke:#000000;stroke-width:3.66030946;stroke-dasharray:none;stroke-opacity:1" /></g></g></svg>
