<?xml version="1.0" encoding="UTF-8" standalone="no"?>
<svg
   version="1.1"
   x="0px"
   y="0px"
   width="110px"
   height="110px"
   viewBox="0.21 -0.077 110 110"
   enable-background="new 0.21 -0.077 110 110"
   xml:space="preserve"
   id="svg4"
   sodipodi:docname="sidebar2.svg"
   inkscape:version="1.4.2 (ebf0e940d0, 2025-05-08)"
   xmlns:inkscape="http://www.inkscape.org/namespaces/inkscape"
   xmlns:sodipodi="http://sodipodi.sourceforge.net/DTD/sodipodi-0.dtd"
   xmlns="http://www.w3.org/2000/svg"
   xmlns:svg="http://www.w3.org/2000/svg"><defs
     id="defs4" /><sodipodi:namedview
     id="namedview4"
     pagecolor="#ffffff"
     bordercolor="#666666"
     borderopacity="1.0"
     inkscape:showpageshadow="2"
     inkscape:pageopacity="0.0"
     inkscape:pagecheckerboard="0"
     inkscape:deskcolor="#d1d1d1"
     inkscape:zoom="7.0636364"
     inkscape:cx="54.929215"
     inkscape:cy="55"
     inkscape:window-width="1920"
     inkscape:window-height="979"
     inkscape:window-x="0"
     inkscape:window-y="29"
     inkscape:window-maximized="1"
     inkscape:current-layer="svg4" /><linearGradient
     id="SVGID_1_"
     gradientUnits="userSpaceOnUse"
     x1="63.8159"
     y1="56.6829"
     x2="118.4934"
     y2="1.8225"
     gradientTransform="matrix(1 0 0 -1 -53.2974 66.4321)"> <stop
   offset="0"
   style="stop-color:#b83838;stop-opacity:1;"
   id="stop1" /> <stop
   offset="1"
   style="stop-color:#366994"
   id="stop2" /></linearGradient><path
     fill="url(#SVGID_1_)"
     d="M55.023-0.077c-25.971,0-26.25,10.081-26.25,12.156c0,3.148,0,12.594,0,12.594h26.75v3.781 c0,0-27.852,0-37.375,0c-7.949,0-17.938,4.833-17.938,26.25c0,19.673,7.792,27.281,15.656,27.281c2.335,0,9.344,0,9.344,0 s0-9.765,0-13.125c0-5.491,2.721-15.656,15.406-15.656c15.91,0,19.971,0,26.531,0c3.902,0,14.906-1.696,14.906-14.406 c0-13.452,0-17.89,0-24.219C82.054,11.426,81.515-0.077,55.023-0.077z M40.273,8.392c2.662,0,4.813,2.15,4.813,4.813 c0,2.661-2.151,4.813-4.813,4.813s-4.813-2.151-4.813-4.813C35.46,10.542,37.611,8.392,40.273,8.392z"
     id="path2"
     style="fill:none;fill-opacity:1;stroke:#000000;stroke-opacity:1;stroke-width:2;stroke-dasharray:none" /><path
     style="fill:none;fill-opacity:1;stroke:#000000;stroke-opacity:1;stroke-width:2;stroke-dasharray:none"
     d="m 70.148,101.454 c -2.662,0 -4.813,-2.151 -4.813,-4.813 0,-2.662 2.15,-4.813 4.813,-4.813 2.661,0 4.813,2.151 4.813,4.813 0,2.662 -2.152,4.813 -4.813,4.813 z"
     id="path3" /><path
     style="fill:none;fill-opacity:1;stroke:#000000;stroke-opacity:1;stroke-width:2;stroke-dasharray:none"
     d="m 55.397,109.923 c 25.959,0 26.282,-10.271 26.282,-12.156 0,-3.148 0,-12.594 0,-12.594 H 54.897 v -3.781 c 0,0 28.032,0 37.375,0 8.009,0 17.938,-4.954 17.938,-26.25 0,-23.322 -10.538,-27.281 -15.656,-27.281 -2.336,0 -9.344,0 -9.344,0 0,0 0,10.216 0,13.125 0,5.491 -2.631,15.656 -15.406,15.656 -15.91,0 -19.476,0 -26.532,0 -3.892,0 -14.906,1.896 -14.906,14.406 0,14.475 0,18.265 0,24.219 0,5.23 3.196,14.656 27.031,14.656 z"
     id="path4" /><linearGradient
     id="SVGID_2_"
     gradientUnits="userSpaceOnUse"
     x1="97.0444"
     y1="21.6321"
     x2="155.6665"
     y2="-34.5308"
     gradientTransform="matrix(1 0 0 -1 -53.2974 66.4321)"> <stop
   offset="0"
   style="stop-color:#FFE052"
   id="stop3" /> <stop
   offset="1"
   style="stop-color:#FFC331"
   id="stop4" /></linearGradient><g
     id="g1"
     transform="matrix(0.79386807,0.79386807,-0.79386807,0.79386807,55.21,-30.814752)"
     style="fill:none;stroke:#000000;stroke-width:8;stroke-dasharray:none;stroke-opacity:1"><circle
       cx="54"
       cy="54"
       r="27.200001"
       fill="none"
       stroke="#E53935"
       stroke-width="6.4"
       id="circle4"
       style="fill:none;stroke:#000000;stroke-width:8;stroke-dasharray:none;stroke-opacity:1" /><circle
       cx="54"
       cy="54"
       r="6.4000001"
       fill="#E53935"
       id="circle5"
       style="fill:none;stroke:#000000;stroke-width:8;stroke-dasharray:none;stroke-opacity:1" /><line
       x1="54"
       y1="17.200001"
       x2="54"
       y2="38"
       stroke="#E53935"
       stroke-width="6.4"
       stroke-linecap="round"
       id="line5"
       style="fill:none;stroke:#000000;stroke-width:8;stroke-dasharray:none;stroke-opacity:1" /><line
       x1="54"
       y1="70"
       x2="54"
       y2="90.800003"
       stroke="#E53935"
       stroke-width="6.4"
       stroke-linecap="round"
       id="line6"
       style="fill:none;stroke:#000000;stroke-width:8;stroke-dasharray:none;stroke-opacity:1" /><line
       x1="17.200001"
       y1="54"
       x2="38"
       y2="54"
       stroke="#E53935"
       stroke-width="6.4"
       stroke-linecap="round"
       id="line7"
       style="fill:none;stroke:#000000;stroke-width:8;stroke-dasharray:none;stroke-opacity:1" /><line
       x1="70"
       y1="54"
       x2="90.800003"
       y2="54"
       stroke="#E53935"
       stroke-width="6.4"
       stroke-linecap="round"
       id="line8"
       style="fill:none;stroke:#000000;stroke-width:8;stroke-dasharray:none;stroke-opacity:1" /></g></svg>
